<?xml version="1.0" encoding="UTF-8"?>
<svg version="1.1" viewBox="0 0 1732 1612" width="1024" height="1024" xmlns="http://www.w3.org/2000/svg">
<path transform="translate(168,937)" d="m0 0 26 2 22 4 31 8 17 6 16 8 15 8 22 13 16 13 13 10 10 9 23 23 9 11 11 13 9 13 7 11 12 18 12 23 4 4 7 3 8 7 3 7 2 14v22l-3 23-5 15-9 16-2 3 1 4 5 4 14 8 13 5 16 4 8 1h22l66-4 64-6 78-7 34-2h78l21 2 6 1-4-14-10-43-12-42-10-19-10-14-11-13-10-9-13-9-12-7-25-10-22-5-8-1h-29l-18 3-21 6-21 10-14 9-12 9-6 4-10-1-12-4-12-7-13-11-7-8-10-15-11-21-6-16-2-8-1-12 2-10 4-6 10-8 24-14 15-8 16-6 23-6 29-6 18-2h15l25 3 39 9 15 4 29 14 25 14 11 8 15 12 9 7 10 9 21 21 9 11 13 15 15 22 10 15 9 15 8 16 12 23 8 20 19 56 8 27 2 8 10 1h22l20-4 15-5 9-5 10-9 7-11 5-11 4-14 2-18v-26l-2-21-3-19-7-25-11-31-8-19-10-17 1-7 9-14 7-7 10-8 15-9 12-5 17-4 16-2h20l16 3 8 5 5 7 7 19 8 30 3 19 1 10 1 22v50l-2 35-4 28-6 26-6 20-10 25-10 20-13 17-11 12-10 10-17 12-17 10-17 7-37 8-23 3h-22l-25-5-67-13-31-4-25-2-20-1h-46l-48 2-55 4-36 4-44 6-59 7-29 2h-20l-18-2-31-7-17-5-18-8-21-12-13-9-10-8-12-11-13-13-9-11-9-14-11-22-8-19-2-3-7-1h-27l-18 2-22 5-15 5-15 7-15 8-11 9-8 8-7 11-6 12-4 12-2 14v24l4 16 10 21 7 9 13 12 14 10 14 7 20 8 19 6 25 6 12 2h38l18-3 23-6 27-9 29-11 28-14 9 3 13 9 11 11 8 13 10 25 4 19 1 12v17l-3 14-5 8-7 6-12 5-32 8-29 5-22 2h-103l-23-2-30-5-22-6-20-7-24-10-20-12-10-7-13-9-11-9-16-15-13-14-12-16-12-20-9-16-6-16-5-19-4-19-1-10v-19l3-22 5-23 5-16 12-25 14-23 8-10 9-10 11-12 9-9 12-9 13-10 15-9 16-8 24-10 22-7 22-5 16-2 55-3 15 1-7-8-9-9-17-12-14-8-19-8-19-5-16-2h-26l-22 3-16 5-12 5-17 9-16 11-9 7-3 2-7-1-19-8-13-9-8-7-11-15-9-15-10-22-4-15-1-14 2-9 6-8 17-11 13-8 16-8 30-10 25-6 23-3z" fill="#1D557A"/>
<path transform="translate(1656,48)" d="m0 0 3 1v3l2 6 6 53 3 42 1 22 1 43v82l-1 50-2 40-3 38-6 55-9 61-9 57-8 40-10 42-11 48-10 36-12 41-9 29-19 55-9 25-12 30-12 31-15 33-13 30-13 27-8 16-12 25-12 22-12 23-10 17-9 16-14 24-14 23-11 18-38 57-15 22-16 21-9 13-9 12-10 13-12 16-14 17-8 10-9 11-11 13-9 11-24 28-7 8-4 4h-2l2-5 13-24 14-26 12-26 15-36 8-19 24-69 6-20 13-53 8-39 6-40 2-24 1-30v-30l-1-29-3-29-5-28-5-22-7-24-10-30-18-36-12-22-13-19-13-17-10-11-7-8-15-16-7-7-8-7-13-11-18-14-33-22-13-8-26-14-19-10-21-9-30-12-21-8-2-3 41 5 37 2h52l47-3 44-5 28-4 36-8 36-10 38-12 21-8 22-10 5-3 1-7v-8l2-1h9l5 3 1 6 6-2 16-10 16-9 11-6 14-9 15-12 12-9 20-20 8-7 14-18 10-12 10-15 16-26 10-18 13-29 11-26 14-45 12-46 6-32 7-54 4-42 1-22z" fill="#52A4D8"/>
<path transform="translate(1235,237)" d="m0 0h19l45 1 83 1 78 2 21 1-2 5-8 10-7 9-10 13-10 14-10 13-14 19-13 17-9 11 3 6 5 5 6 8 7 12 5 15 5 26 2 17v9l-5 23-5 12-8 12-8 10-10 10-16 12-14 7-17 5-11 2h-26l-19-4-13-5-11-6-14-10-13-11-9-10-9-15-5-11-2-8-2-18-1-2-6-1h-61l-26 1 7 15 21 53 7-1h10l3 3 7 20-5 1-7-1h-9l-7 3-7 11-4 1-3-4-4-16 6-7 4-3-3-9-14-31-11-26-4-9-2-1h-35l2-4 8-8 11-14 13-16 22-28 11-13 13-17 9-11 11-13 10-13 8-10 12-14 10-14 10-11 12-16z" fill="#1D557A"/>
<path transform="translate(1394,579)" d="m0 0h9l5 3 1 6 5 1 16 29 12 20 12 21 11 20 9 16 23 46 8 23 4 22 2 22v39l-3 20-5 8-9 10-11 11-8 7-12 11-8 7-15 14-10 9-6 5-6-1-9-11-8-10-13-16-9-11-11-13-7-9-2-3 1-5 6-9 13-30 9-27 5-23 2-16 1-19v-86l-2-42-2-18-1-5 1-7v-8z" fill="#FEFEFE"/>
<path transform="translate(769,1419)" d="m0 0h12l14 3 14 7 10 10 8 14 4 11 1 7v12l-3 12-7 14-8 10-9 7-10 5-12 3h-17l-13-3-12-7-9-9-7-10-6-12-2-7-1-13 4-16 5-10 11-14 8-7 9-4z" fill="#52A4D8"/>
<path transform="translate(1088,834)" d="m0 0 15 1 14 5 11 7 7 7 10 15 4 13v18l-3 12-5 9-8 10-10 9-11 6-9 3-8 1h-9l-11-2-16-8-13-12-6-10-5-14-1-5v-15l5-16 5-10 9-10 6-5 13-6z" fill="#52A4D8"/>
</svg>
